<svg width="160" height="160" fill="none" xmlns="http://www.w3.org/2000/svg"><path d="M75 2.887a10 10 0 0110 0l59.282 34.226a10 10 0 015 8.66v68.453c0 3.573-1.906 6.874-5 8.661L85 157.113a9.997 9.997 0 01-10 0l-59.282-34.226a10.001 10.001 0 01-5-8.661V45.773a10 10 0 015-8.66L75 2.887z" fill="#F1F6FE"/><g clip-path="url(#clip0_14:13469)"><path d="M113.492 61.905l-10.094-7.72a5.893 5.893 0 00-3.56-1.206h-2.433a7.508 7.508 0 00-1.104-2.028c-1.78-2.337-4.965-3.277-6.682-1.97-.836.634-1.292 1.795-1.252 3.182.038 1.331.524 2.674 1.367 3.783.287.377.607.726.95 1.038a27.78 27.78 0 00-3.444 5.364h-4.544a3.183 3.183 0 00-3.18 3.18 3.183 3.183 0 003.18 3.18h2.214a35.85 35.85 0 00-1.07 7.016 3.128 3.128 0 01-3.134 2.957h-8.73a7.442 7.442 0 01-4.654-1.64l-4.895-3.948a5.002 5.002 0 00-5.34-.622 5.004 5.004 0 00-2.868 4.55v23.289a59.569 59.569 0 01-3.872-1.77 4.389 4.389 0 00-5.883 1.956 4.389 4.389 0 001.956 5.883c9.444 4.733 19.958 7.234 30.405 7.234 6.796 0 13.585-1.045 20.178-3.107a1.054 1.054 0 10-.629-2.013c-6.39 1.998-12.967 3.011-19.55 3.011-10.12 0-20.306-2.424-29.46-7.01a2.278 2.278 0 01-1.014-3.053 2.277 2.277 0 013.052-1.014c3.447 1.727 10.439 4.27 14.097 3.073.5 0 .795-4 3-7 2.206-3 8.853-4.996 15.726-3 6.874 1.996 7.237 9.5 7.775 10 .537.5 8.799-.343 14.247-3.073a2.277 2.277 0 013.052 1.014 2.277 2.277 0 01-1.014 3.053 66.366 66.366 0 01-5.25 2.349 1.054 1.054 0 10.777 1.961 68.11 68.11 0 005.418-2.425 4.388 4.388 0 001.955-5.883 4.39 4.39 0 00-5.883-1.955 59.47 59.47 0 01-3.872 1.769V85.686c0-4.72.46-8.73 1.407-12.258a.144.144 0 01.14-.106h8.649c2.771 0 5.137-1.696 6.026-4.322.889-2.625.041-5.41-2.16-7.095zm-31.866 3.623c0-.59.48-1.07 1.07-1.07h8.764a1.071 1.071 0 010 2.14h-8.764c-.59 0-1.07-.48-1.07-1.07zm.209 15.14c.255.5.39 1.05.39 1.625a3.597 3.597 0 01-3.593 3.594 3.597 3.597 0 01-3.264-5.096h5.338c.387 0 .764-.044 1.129-.123zm-25.507 7.177a3.597 3.597 0 013.931 3.576 3.597 3.597 0 01-3.93 3.575v-7.151zm40.992-.61c-.393.144-.81.22-1.232.22a3.597 3.597 0 01-3.594-3.593 3.597 3.597 0 013.594-3.593c.496 0 .98.103 1.43.299a63.215 63.215 0 00-.198 5.118v1.55zm16.334-18.912c-.474 1.397-1.78 2.89-4.029 2.89h-2.499a5.603 5.603 0 01-1.707-4.026c0-2.615 1.845-4.893 4.357-5.468l2.434 1.862c1.786 1.366 1.917 3.346 1.444 4.742z" fill="#A1B3D6" fill-opacity=".4"/><path d="M106.501 105.5l-5 2.5c-1 .5-14 4-19.5 4.5s-11.5 0-16.5-1-14-3-17.5-5-3-3-3-4.5 1.5-2.5 3.5-2.5 9 3 15.5 5 13.5 1 18.5 1 12.5-2 17.5-4.5 5-1.5 7-1c1.6.4 1.667 2.5 1.5 3.5l-2 2z" fill="#5FA9FF"/><path d="M113.492 61.905l-10.094-7.72a5.893 5.893 0 00-3.56-1.206h-2.433a7.508 7.508 0 00-1.104-2.028c-1.78-2.337-4.965-3.277-6.682-1.97-.836.634-1.292 1.795-1.252 3.182.038 1.331.524 2.674 1.367 3.783.287.377.607.726.95 1.038a27.78 27.78 0 00-3.444 5.364h-4.544a3.183 3.183 0 00-3.18 3.18 3.183 3.183 0 003.18 3.18h2.214a35.85 35.85 0 00-1.07 7.016 3.128 3.128 0 01-3.134 2.957h-8.73a7.442 7.442 0 01-4.654-1.64l-4.895-3.948a5.002 5.002 0 00-5.34-.622 5.004 5.004 0 00-2.868 4.55v23.289a59.569 59.569 0 01-3.872-1.77 4.389 4.389 0 00-5.883 1.956 4.389 4.389 0 001.956 5.883c9.444 4.733 19.958 7.234 30.405 7.234 6.796 0 13.585-1.045 20.178-3.107a1.054 1.054 0 10-.629-2.013c-6.39 1.998-12.967 3.011-19.55 3.011-10.12 0-20.306-2.424-29.46-7.01a2.278 2.278 0 01-1.014-3.053 2.277 2.277 0 013.052-1.014c8.515 4.266 18.004 6.528 27.423 6.528 9.766 0 19.23-2.423 27.422-6.528a2.277 2.277 0 013.052 1.014 2.277 2.277 0 01-1.014 3.053 66.366 66.366 0 01-5.25 2.349 1.054 1.054 0 10.777 1.961 68.11 68.11 0 005.418-2.425 4.388 4.388 0 001.955-5.883 4.39 4.39 0 00-5.883-1.955 59.47 59.47 0 01-3.872 1.769V85.686c0-4.72.46-8.73 1.407-12.258a.144.144 0 01.14-.106h8.649c2.771 0 5.137-1.696 6.026-4.322.889-2.625.041-5.41-2.16-7.095zm-31.866 3.623c0-.59.48-1.07 1.07-1.07h8.764a1.071 1.071 0 010 2.14h-8.764c-.59 0-1.07-.48-1.07-1.07zm.209 15.14c.255.5.39 1.05.39 1.625a3.597 3.597 0 01-3.593 3.594 3.597 3.597 0 01-3.264-5.096h5.338c.387 0 .764-.044 1.129-.123zm-25.507 7.177a3.597 3.597 0 013.931 3.576 3.597 3.597 0 01-3.93 3.575v-7.151zm40.992-.61c-.393.144-.81.22-1.232.22a3.597 3.597 0 01-3.594-3.593 3.597 3.597 0 013.594-3.593c.496 0 .98.103 1.43.299a63.215 63.215 0 00-.198 5.118v1.55zm1.48-14.353a40.702 40.702 0 00-1.06 5.523 5.709 5.709 0 00-7.355 5.458 5.709 5.709 0 005.703 5.702c.416 0 .829-.049 1.232-.138v11.709a59.973 59.973 0 01-6.542 2.007c-.01-6.197-5.055-11.236-11.255-11.236h-5.397c-1.215 0-2.409.193-3.549.572a1.054 1.054 0 10.666 2.001 9.122 9.122 0 012.883-.463h5.397c5.043 0 9.146 4.103 9.146 9.146v.459a58.467 58.467 0 01-11.845 1.224c-3.963 0-7.938-.415-11.844-1.224v-.459c0-2.336.88-4.56 2.478-6.261a1.055 1.055 0 00-1.537-1.445 11.215 11.215 0 00-3.05 7.687 59.972 59.972 0 01-6.543-2.008v-4.023a5.71 5.71 0 006.04-5.692 5.71 5.71 0 00-6.04-5.692v-8.708c0-1.158.624-2.148 1.669-2.647a2.873 2.873 0 013.106.361l4.895 3.948a9.558 9.558 0 005.978 2.108h1.158c-.133.486-.204.99-.204 1.502a5.71 5.71 0 005.702 5.703 5.71 5.71 0 005.135-8.186 5.213 5.213 0 002.18-3.976 33.686 33.686 0 011.144-7.127h4.37a3.183 3.183 0 003.179-3.18 3.183 3.183 0 00-3.18-3.18h-1.844a24.976 24.976 0 013.378-4.813 1.054 1.054 0 00-.22-1.597 5.313 5.313 0 01-1.361-1.269c-.57-.75-.912-1.685-.938-2.566-.021-.76.196-1.272.42-1.443.564-.428 2.48-.069 3.727 1.569.48.634.81 1.332.953 2.02.101.49.532.84 1.032.84h3.23c.82 0 1.629.275 2.279.773l5.662 4.33c-2.651 1.243-4.468 3.954-4.468 6.996 0 1.438.401 2.827 1.135 4.026h-3.468c-1.02 0-1.914.686-2.178 1.669zm14.854-4.559c-.474 1.397-1.78 2.89-4.029 2.89h-2.499a5.603 5.603 0 01-1.707-4.026c0-2.615 1.845-4.893 4.357-5.468l2.434 1.862c1.786 1.366 1.917 3.346 1.444 4.742z" fill="#222A3F" stroke="#222A3F" stroke-width=".3"/><path d="M98.906 57.84c-.582 0-1.054.472-1.054 1.054v1.148a1.055 1.055 0 002.109 0v-1.148c0-.582-.472-1.054-1.055-1.054z" fill="#222A3F"/></g><defs><clipPath id="clip0_14:13469"><path fill="#fff" transform="translate(44 45)" d="M0 0h72v72H0z"/></clipPath></defs></svg>