<svg width="160" height="160" fill="none" xmlns="http://www.w3.org/2000/svg"><path d="M75 2.887a10 10 0 0110 0l59.282 34.226a10 10 0 015 8.66v68.453c0 3.573-1.906 6.874-5 8.661L85 157.113a9.997 9.997 0 01-10 0l-59.282-34.226a10.001 10.001 0 01-5-8.661V45.773a10 10 0 015-8.66L75 2.887z" fill="#D0DFFB" fill-opacity=".3"/><path fill-rule="evenodd" clip-rule="evenodd" d="M82 92.776C91.623 91.33 99 83.026 99 73c0-4.623-1.569-8.88-4.203-12.267-.394-.507-1.395-.208-2.405.094-.963.288-1.934.577-2.392.173-.454-.4-.404-1.483-.354-2.566.053-1.156.107-2.313-.451-2.644A19.908 19.908 0 0079 53c-11.046 0-20 8.954-20 20 0 4.794 1.687 9.195 4.5 12.64.263.322.542.067.924-.282.625-.57 1.525-1.392 3.076-.358 1.918 1.279 1.397 2.732 1.024 3.77-.21.586-.373 1.04-.024 1.255a19.874 19.874 0 007.5 2.751c.28.043.154-1.355-.028-3.372-.154-1.703-.347-3.847-.37-5.939C71.19 82.034 68 77.89 68 73c0-6.075 4.925-11 11-11s11 4.925 11 11c0 4.964-3.288 9.16-7.805 10.529.035 2.124-.122 4.292-.244 5.995-.141 1.954-.238 3.296.049 3.252z" fill="#A1B3D6" fill-opacity=".4"/><path d="M84 73c0 2.761-2.239 3-5 3s-5-.239-5-3a5 5 0 0110 0z" fill="#B28CFF"/><path d="M68.996 91.046a4.61 4.61 0 000-6.512 4.576 4.576 0 00-3.256-1.349 4.57 4.57 0 00-2.017.465 18.435 18.435 0 01-3.339-10.641c0-9.856 7.7-18.02 17.527-18.588a1.212 1.212 0 00-.14-2.42c-11.108.643-19.81 9.87-19.81 21.008 0 4.443 1.358 8.664 3.933 12.25a4.612 4.612 0 00.59 5.787 4.575 4.575 0 003.256 1.348c1.23 0 2.386-.479 3.256-1.348zm-4.799-4.798a2.175 2.175 0 011.543-.638c.558 0 1.117.213 1.542.638.85.85.85 2.234 0 3.084-.85.85-2.234.85-3.085 0a2.184 2.184 0 010-3.084z" fill="#222A3F"/><path d="M97.686 93.98a4.3 4.3 0 00-2.11.549 4.343 4.343 0 00-4.136-3.034 4.322 4.322 0 00-3.123 1.332 4.386 4.386 0 00-.726-.606 21.038 21.038 0 0012.455-19.213c0-4.44-1.358-8.664-3.932-12.25a4.612 4.612 0 00-.591-5.787 4.61 4.61 0 00-6.512 0 4.61 4.61 0 000 6.512 4.61 4.61 0 005.271.883 18.442 18.442 0 013.34 10.643c0 8.765-5.95 16.174-14.34 18.125v-6.522c4.806-1.773 8.088-6.418 8.088-11.603 0-6.819-5.547-12.367-12.366-12.367S66.637 66.19 66.637 73.01c0 2.69.85 5.25 2.458 7.4a12.493 12.493 0 005.518 4.16v17.823l-1.522-2.497a4.463 4.463 0 00-6.078-1.552c-2.026 1.17-2.815 3.735-1.793 5.852l4.52 9.13a1.213 1.213 0 001.623.549c.6-.297.845-1.024.549-1.623l-4.515-9.121a2.075 2.075 0 01.827-2.688 2.079 2.079 0 012.798.714l3.768 6.183a1.211 1.211 0 002.246-.631v-27.8a1.913 1.913 0 013.823-.001v23.012a1.21 1.21 0 102.424 0v-6.09c0-1.054.857-1.911 1.91-1.911 1.055 0 1.912.857 1.912 1.911v6.531a1.212 1.212 0 002.423 0v-6.53a1.912 1.912 0 013.822-.001v6.612a1.212 1.212 0 102.424 0v-4.128c0-1.054.858-1.912 1.912-1.912 1.054 0 1.911.858 1.911 1.912v14.473a1.211 1.211 0 102.423 0V98.314a4.34 4.34 0 00-4.334-4.335zm-6.96-34.21a2.183 2.183 0 010-3.085 2.173 2.173 0 011.541-.638c.559 0 1.118.213 1.543.638.85.85.85 2.234 0 3.085-.85.85-2.235.85-3.085 0zM69.06 73.009c0-5.483 4.46-9.944 9.943-9.944s9.943 4.46 9.943 9.944c0 3.86-2.262 7.349-5.664 8.977v-3.078c0-.68-.158-1.325-.44-1.898a5.574 5.574 0 001.71-4.001c0-3.06-2.489-5.55-5.549-5.55-3.06 0-5.55 2.49-5.55 5.55a5.58 5.58 0 001.635 3.929 4.306 4.306 0 00-.476 1.97v3.027a9.892 9.892 0 01-5.552-8.926zm7.688 2.165a3.096 3.096 0 01-.871-2.165 3.13 3.13 0 013.126-3.127 3.13 3.13 0 013.126 3.127c0 .833-.338 1.627-.914 2.207a4.305 4.305 0 00-2.268-.643c-.802 0-1.553.22-2.199.601zm6.545-20.319c.32 0 .632-.13.857-.355a1.22 1.22 0 00.355-.857c0-.318-.13-.631-.355-.857a1.22 1.22 0 00-.857-.354c-.318 0-.63.13-.856.354a1.22 1.22 0 00-.355.857c0 .319.13.632.355.857.225.225.538.355.856.355z" fill="#222A3F"/></svg>