<svg width="160" height="160" fill="none" xmlns="http://www.w3.org/2000/svg"><path d="M75 2.887a10 10 0 0110 0l59.282 34.226a10 10 0 015 8.66v68.453c0 3.573-1.906 6.874-5 8.661L85 157.113a9.997 9.997 0 01-10 0l-59.282-34.226a10.001 10.001 0 01-5-8.661V45.773a10 10 0 015-8.66L75 2.887z" fill="#D0DFFB" fill-opacity=".3"/><g clip-path="url(#clip0_14:13504)"><path d="M94.5 63.5H81v6h11.5v23H81v6h13.5L98 95V67l-3.5-3.5z" fill="#A1B3D6" fill-opacity=".4"/><path fill-rule="evenodd" clip-rule="evenodd" d="M80.5 73.5v-17C80 55 78.2 52 75 52c-3.139 0-4.43 1.847-5.324 3.126-.246.35-.46.659-.676.874-.8.8-.667 1-.5 1-.833 0-3 .4-5 2-2.5 2-3.5 4.5-3.5 5 0 .11-.024.317-.057.594-.115.983-.333 2.846.057 4.406.5 2 .5 2 0 2.5-.148.148-.383.295-.679.482-.707.444-1.764 1.109-2.821 2.518a61.09 61.09 0 01-.41.54C54.82 76.707 54 77.783 54 80.5c0 3 1.5 6 3 7.5.713.713 1.539 1.313 2.21 1.8.74.538 1.29.938 1.29 1.2 0 .167-.111.389-.26.685-.296.593-.74 1.482-.74 2.815 0 .427-.023.81-.044 1.165-.078 1.308-.135 2.262 1.044 3.835 1.5 2 3 3.5 4.5 4.5.859.573 2.046.653 2.903.712.64.043 1.097.074 1.097.288 0 .5 1.5 4 3 4.5s5 .5 6-.5 2.5-2.5 2.5-3.5v-32zM69 70a3 3 0 100-6 3 3 0 000 6zm3 25a3 3 0 11-6 0 3 3 0 016 0zm-4-11a3 3 0 100-6 3 3 0 000 6z" fill="#C4B3E8"/><path d="M103.785 76.64a1.172 1.172 0 000-2.344h-4.44v-3.19h4.44a1.172 1.172 0 000-2.344h-4.44v-1.918c0-.31-.122-.608-.342-.828l-3.389-3.392a1.172 1.172 0 00-.829-.343h-1.917v-4.435a1.172 1.172 0 00-2.344 0v4.435h-3.191v-4.435a1.172 1.172 0 10-2.344 0v4.435h-3.188v-4.2c0-3.904-3.177-7.081-7.082-7.081-3.195 0-5.972 2.16-6.819 5.16a10.497 10.497 0 00-6.433 3.087 10.508 10.508 0 00-3.049 7.428c0 1.389.274 2.765.8 4.04a11.632 11.632 0 00-4.126 3.685 11.583 11.583 0 00-2.049 6.598c0 4.364 2.386 8.279 6.175 10.287a10.596 10.596 0 00-.8 4.037c0 2.799 1.083 5.437 3.05 7.428a10.492 10.492 0 006.433 3.087c.846 3.002 3.623 5.163 6.818 5.163 3.905 0 7.083-3.177 7.083-7.081v-4.203h3.187v4.438a1.172 1.172 0 102.344 0v-4.438h3.191v4.438a1.171 1.171 0 102.344 0v-4.438h1.918c.31 0 .608-.123.828-.343l3.389-3.389c.22-.22.343-.517.343-.828v-1.92h4.439a1.172 1.172 0 000-2.345h-4.44v-3.187h4.44a1.172 1.172 0 000-2.343h-4.44v-3.19h4.44a1.172 1.172 0 000-2.345h-4.44V76.64h4.44zm-29.066 32.016a4.76 4.76 0 01-4.376-2.921 10.395 10.395 0 005.586-2.957 1.172 1.172 0 10-1.675-1.639 8.023 8.023 0 01-2.399 1.684 7.942 7.942 0 01-3.007.723c-4.461-.074-8.086-3.757-8.086-8.224 0-1.412.363-2.803 1.049-4.023a1.17 1.17 0 00-.585-1.662 9.266 9.266 0 01-5.84-8.639 9.258 9.258 0 015.84-8.635c.696-.376.892-.93.586-1.66a8.246 8.246 0 01-1.05-4.028c0-4.468 3.625-8.151 8.086-8.225a8.005 8.005 0 013.007.723 7.983 7.983 0 012.397 1.686 1.168 1.168 0 001.657.021 1.172 1.172 0 00.021-1.657 10.324 10.324 0 00-3.1-2.181 10.438 10.438 0 00-2.487-.78 4.76 4.76 0 014.376-2.918 4.743 4.743 0 014.739 4.737V72.45H75.81l-3.11-3.11a4.135 4.135 0 00.508-1.993c0-1.11-.433-2.154-1.218-2.94a4.163 4.163 0 00-5.88 0 4.13 4.13 0 00-1.218 2.94 4.13 4.13 0 001.218 2.94 4.162 4.162 0 004.931.709l3.454 3.453c.25.224.526.338.829.343h4.134v5.034h-7.344a4.165 4.165 0 00-3.99-2.983 4.16 4.16 0 00-4.154 4.155 4.161 4.161 0 004.155 4.158 4.165 4.165 0 003.99-2.986h7.343v5.034h-4.134a1.166 1.166 0 00-.829.343l-3.454 3.457a4.165 4.165 0 00-4.93.709 4.13 4.13 0 00-1.219 2.942 4.12 4.12 0 001.218 2.934 4.145 4.145 0 002.94 1.215 4.143 4.143 0 002.939-1.214 4.121 4.121 0 001.218-2.935 4.134 4.134 0 00-.507-1.996l3.11-3.111h3.647v14.371a4.743 4.743 0 01-4.738 4.737zm-3.855-41.309a1.816 1.816 0 01-3.628 0c0-.484.189-.94.531-1.282a1.816 1.816 0 013.097 1.282zm-.924 13.651c0 1-.814 1.815-1.815 1.815a1.814 1.814 0 111.815-1.814zm.924 13.655c0 .483-.189.937-.531 1.278a1.816 1.816 0 01-2.567 0 1.793 1.793 0 01-.53-1.278c0-.484.189-.94.531-1.283a1.816 1.816 0 012.566 0 1.8 1.8 0 01.531 1.283zm26.138.017L94.3 97.372H81.801V93.9h10.556c.647 0 1.172-.524 1.172-1.171v-6.471a1.172 1.172 0 00-2.344 0v5.299H81.8V70.444h9.384v5.286a1.172 1.172 0 002.344 0v-6.458c0-.647-.525-1.171-1.172-1.171H81.8v-3.476h12.5l2.702 2.704V94.67z" fill="#222A3F"/><path d="M92.356 79.823c-.648 0-1.172.525-1.172 1.172v.003a1.173 1.173 0 101.172-1.175z" fill="#222A3F"/></g><defs><clipPath id="clip0_14:13504"><path fill="#fff" transform="translate(49 51)" d="M0 0h60v60H0z"/></clipPath></defs></svg>